<svg width="1051" height="1257" viewBox="0 0 1051 1257" fill="none" xmlns="http://www.w3.org/2000/svg">
<g opacity="0.4">
<path d="M735 627L840 522V627H735Z" fill="url(#paint0_linear)"/>
<path d="M840 417L735 522H630L735 417H840Z" fill="url(#paint1_linear)"/>
<path d="M210 942L105 1047H0L105 942H210Z" fill="url(#paint2_linear)"/>
<path d="M421 207L526 312H631L526 207H421Z" fill="url(#paint3_linear)"/>
<path d="M630 942L525 1047H420L525 942H630Z" fill="url(#paint4_linear)"/>
<path d="M945 522L735 312L1047 0V104.5L839.5 312L945 417.5V522Z" fill="url(#paint5_linear)"/>
<path d="M840 732L735 627V732H840Z" fill="url(#paint6_linear)"/>
<path d="M735 627L630 522V627H735Z" fill="url(#paint7_linear)"/>
<path d="M525 417L630 312V417H525Z" fill="url(#paint8_linear)"/>
<path d="M735 942L630 837V942H735Z" fill="url(#paint9_linear)"/>
<path d="M316 942L211 837V942H316Z" fill="url(#paint10_linear)"/>
<path d="M525 417L420 312V417H525Z" fill="url(#paint11_linear)"/>
<path d="M630 837L735 732V837H630Z" fill="url(#paint12_linear)"/>
<path d="M315 627L420 522V627H315Z" fill="url(#paint13_linear)"/>
<path d="M945 942L840 1047V942H945Z" fill="url(#paint14_linear)"/>
<path d="M945 1152L840 1257V1152H945Z" fill="url(#paint15_linear)"/>
<path d="M840 1047L945 1152V1047H840Z" fill="url(#paint16_linear)"/>
<path d="M315 942L420 1047V942H315Z" fill="url(#paint17_linear)"/>
<path d="M840 837L735 942V837H840Z" fill="url(#paint18_linear)"/>
<path d="M735 1047L630 942V1047H735Z" fill="url(#paint19_linear)"/>
<path d="M525 837L420 942V837H525Z" fill="url(#paint20_linear)"/>
<path d="M525 732L630 837V732H525Z" fill="url(#paint21_linear)"/>
<path d="M735 942L840 1047L735 1152V1047V942Z" fill="url(#paint22_linear)"/>
<path d="M525 417H630V522H525V417Z" fill="url(#paint23_linear)"/>
<path d="M946 943H1051V1048H946V943Z" fill="url(#paint24_linear)"/>
<path d="M630 627H735V732H630V627Z" fill="url(#paint25_linear)"/>
<path d="M841 733L946 838L841 943V733Z" fill="url(#paint26_linear)"/>
<path d="M525 732L630 837L525 942V837V732Z" fill="url(#paint27_linear)"/>
<path d="M840 627L945 732V627H840Z" fill="url(#paint28_linear)"/>
<path d="M1050 732L945 837V732H1050Z" fill="url(#paint29_linear)"/>
<path d="M840 522L945 627V522H840Z" fill="url(#paint30_linear)"/>
<path d="M945 418L1050 523V418H945Z" fill="url(#paint31_linear)"/>
<path d="M630 312L735 417V312H630Z" fill="url(#paint32_linear)"/>
<path d="M315 207L420 312V207H315Z" fill="url(#paint33_linear)"/>
<path d="M1 838L106 943V838H1Z" fill="url(#paint34_linear)"/>
<path d="M630 627L315 942V837.5L525.5 627L420 521.5V417L630 627Z" fill="url(#paint35_linear)"/>
</g>
<defs>
<linearGradient id="paint0_linear" x1="1412" y1="-304.5" x2="298.5" y2="1027" gradientUnits="userSpaceOnUse">
<stop stop-color="#243B3B" stop-opacity="0.6"/>
<stop offset="1" stop-color="#243B3B" stop-opacity="0"/>
</linearGradient>
<linearGradient id="paint1_linear" x1="1412" y1="-304.5" x2="298.5" y2="1027" gradientUnits="userSpaceOnUse">
<stop stop-color="#243B3B" stop-opacity="0.6"/>
<stop offset="1" stop-color="#243B3B" stop-opacity="0"/>
</linearGradient>
<linearGradient id="paint2_linear" x1="1412" y1="-304.5" x2="298.5" y2="1027" gradientUnits="userSpaceOnUse">
<stop stop-color="#243B3B" stop-opacity="0.6"/>
<stop offset="1" stop-color="#243B3B" stop-opacity="0"/>
</linearGradient>
<linearGradient id="paint3_linear" x1="1412" y1="-304.5" x2="298.5" y2="1027" gradientUnits="userSpaceOnUse">
<stop stop-color="#243B3B" stop-opacity="0.6"/>
<stop offset="1" stop-color="#243B3B" stop-opacity="0"/>
</linearGradient>
<linearGradient id="paint4_linear" x1="1412" y1="-304.5" x2="298.5" y2="1027" gradientUnits="userSpaceOnUse">
<stop stop-color="#243B3B" stop-opacity="0.6"/>
<stop offset="1" stop-color="#243B3B" stop-opacity="0"/>
</linearGradient>
<linearGradient id="paint5_linear" x1="1412" y1="-304.5" x2="298.5" y2="1027" gradientUnits="userSpaceOnUse">
<stop stop-color="#243B3B" stop-opacity="0.6"/>
<stop offset="1" stop-color="#243B3B" stop-opacity="0"/>
</linearGradient>
<linearGradient id="paint6_linear" x1="1412" y1="-304.5" x2="298.5" y2="1027" gradientUnits="userSpaceOnUse">
<stop stop-color="#243B3B" stop-opacity="0.6"/>
<stop offset="1" stop-color="#243B3B" stop-opacity="0"/>
</linearGradient>
<linearGradient id="paint7_linear" x1="1412" y1="-304.5" x2="298.5" y2="1027" gradientUnits="userSpaceOnUse">
<stop stop-color="#243B3B" stop-opacity="0.6"/>
<stop offset="1" stop-color="#243B3B" stop-opacity="0"/>
</linearGradient>
<linearGradient id="paint8_linear" x1="1412" y1="-304.5" x2="298.5" y2="1027" gradientUnits="userSpaceOnUse">
<stop stop-color="#243B3B" stop-opacity="0.6"/>
<stop offset="1" stop-color="#243B3B" stop-opacity="0"/>
</linearGradient>
<linearGradient id="paint9_linear" x1="1412" y1="-304.5" x2="298.5" y2="1027" gradientUnits="userSpaceOnUse">
<stop stop-color="#243B3B" stop-opacity="0.6"/>
<stop offset="1" stop-color="#243B3B" stop-opacity="0"/>
</linearGradient>
<linearGradient id="paint10_linear" x1="1412" y1="-304.5" x2="298.5" y2="1027" gradientUnits="userSpaceOnUse">
<stop stop-color="#243B3B" stop-opacity="0.6"/>
<stop offset="1" stop-color="#243B3B" stop-opacity="0"/>
</linearGradient>
<linearGradient id="paint11_linear" x1="1412" y1="-304.5" x2="298.5" y2="1027" gradientUnits="userSpaceOnUse">
<stop stop-color="#243B3B" stop-opacity="0.6"/>
<stop offset="1" stop-color="#243B3B" stop-opacity="0"/>
</linearGradient>
<linearGradient id="paint12_linear" x1="1412" y1="-304.5" x2="298.5" y2="1027" gradientUnits="userSpaceOnUse">
<stop stop-color="#243B3B" stop-opacity="0.6"/>
<stop offset="1" stop-color="#243B3B" stop-opacity="0"/>
</linearGradient>
<linearGradient id="paint13_linear" x1="1412" y1="-304.5" x2="298.5" y2="1027" gradientUnits="userSpaceOnUse">
<stop stop-color="#243B3B" stop-opacity="0.6"/>
<stop offset="1" stop-color="#243B3B" stop-opacity="0"/>
</linearGradient>
<linearGradient id="paint14_linear" x1="1412" y1="-304.5" x2="298.5" y2="1027" gradientUnits="userSpaceOnUse">
<stop stop-color="#243B3B" stop-opacity="0.6"/>
<stop offset="1" stop-color="#243B3B" stop-opacity="0"/>
</linearGradient>
<linearGradient id="paint15_linear" x1="1412" y1="-304.5" x2="298.5" y2="1027" gradientUnits="userSpaceOnUse">
<stop stop-color="#243B3B" stop-opacity="0.6"/>
<stop offset="1" stop-color="#243B3B" stop-opacity="0"/>
</linearGradient>
<linearGradient id="paint16_linear" x1="1412" y1="-304.5" x2="298.5" y2="1027" gradientUnits="userSpaceOnUse">
<stop stop-color="#243B3B" stop-opacity="0.6"/>
<stop offset="1" stop-color="#243B3B" stop-opacity="0"/>
</linearGradient>
<linearGradient id="paint17_linear" x1="1412" y1="-304.5" x2="298.5" y2="1027" gradientUnits="userSpaceOnUse">
<stop stop-color="#243B3B" stop-opacity="0.6"/>
<stop offset="1" stop-color="#243B3B" stop-opacity="0"/>
</linearGradient>
<linearGradient id="paint18_linear" x1="1412" y1="-304.5" x2="298.5" y2="1027" gradientUnits="userSpaceOnUse">
<stop stop-color="#243B3B" stop-opacity="0.6"/>
<stop offset="1" stop-color="#243B3B" stop-opacity="0"/>
</linearGradient>
<linearGradient id="paint19_linear" x1="1412" y1="-304.5" x2="298.5" y2="1027" gradientUnits="userSpaceOnUse">
<stop stop-color="#243B3B" stop-opacity="0.6"/>
<stop offset="1" stop-color="#243B3B" stop-opacity="0"/>
</linearGradient>
<linearGradient id="paint20_linear" x1="1412" y1="-304.5" x2="298.5" y2="1027" gradientUnits="userSpaceOnUse">
<stop stop-color="#243B3B" stop-opacity="0.6"/>
<stop offset="1" stop-color="#243B3B" stop-opacity="0"/>
</linearGradient>
<linearGradient id="paint21_linear" x1="1412" y1="-304.5" x2="298.5" y2="1027" gradientUnits="userSpaceOnUse">
<stop stop-color="#243B3B" stop-opacity="0.6"/>
<stop offset="1" stop-color="#243B3B" stop-opacity="0"/>
</linearGradient>
<linearGradient id="paint22_linear" x1="1412" y1="-304.5" x2="298.5" y2="1027" gradientUnits="userSpaceOnUse">
<stop stop-color="#243B3B" stop-opacity="0.6"/>
<stop offset="1" stop-color="#243B3B" stop-opacity="0"/>
</linearGradient>
<linearGradient id="paint23_linear" x1="1412" y1="-304.5" x2="298.5" y2="1027" gradientUnits="userSpaceOnUse">
<stop stop-color="#243B3B" stop-opacity="0.6"/>
<stop offset="1" stop-color="#243B3B" stop-opacity="0"/>
</linearGradient>
<linearGradient id="paint24_linear" x1="1412" y1="-304.5" x2="298.5" y2="1027" gradientUnits="userSpaceOnUse">
<stop stop-color="#243B3B" stop-opacity="0.6"/>
<stop offset="1" stop-color="#243B3B" stop-opacity="0"/>
</linearGradient>
<linearGradient id="paint25_linear" x1="1412" y1="-304.5" x2="298.5" y2="1027" gradientUnits="userSpaceOnUse">
<stop stop-color="#243B3B" stop-opacity="0.6"/>
<stop offset="1" stop-color="#243B3B" stop-opacity="0"/>
</linearGradient>
<linearGradient id="paint26_linear" x1="1412" y1="-304.5" x2="298.5" y2="1027" gradientUnits="userSpaceOnUse">
<stop stop-color="#243B3B" stop-opacity="0.6"/>
<stop offset="1" stop-color="#243B3B" stop-opacity="0"/>
</linearGradient>
<linearGradient id="paint27_linear" x1="1412" y1="-304.5" x2="298.5" y2="1027" gradientUnits="userSpaceOnUse">
<stop stop-color="#243B3B" stop-opacity="0.6"/>
<stop offset="1" stop-color="#243B3B" stop-opacity="0"/>
</linearGradient>
<linearGradient id="paint28_linear" x1="1412" y1="-304.5" x2="298.5" y2="1027" gradientUnits="userSpaceOnUse">
<stop stop-color="#243B3B" stop-opacity="0.6"/>
<stop offset="1" stop-color="#243B3B" stop-opacity="0"/>
</linearGradient>
<linearGradient id="paint29_linear" x1="1412" y1="-304.5" x2="298.5" y2="1027" gradientUnits="userSpaceOnUse">
<stop stop-color="#243B3B" stop-opacity="0.6"/>
<stop offset="1" stop-color="#243B3B" stop-opacity="0"/>
</linearGradient>
<linearGradient id="paint30_linear" x1="1412" y1="-304.5" x2="298.5" y2="1027" gradientUnits="userSpaceOnUse">
<stop stop-color="#243B3B" stop-opacity="0.6"/>
<stop offset="1" stop-color="#243B3B" stop-opacity="0"/>
</linearGradient>
<linearGradient id="paint31_linear" x1="1412" y1="-304.5" x2="298.5" y2="1027" gradientUnits="userSpaceOnUse">
<stop stop-color="#243B3B" stop-opacity="0.6"/>
<stop offset="1" stop-color="#243B3B" stop-opacity="0"/>
</linearGradient>
<linearGradient id="paint32_linear" x1="1412" y1="-304.5" x2="298.5" y2="1027" gradientUnits="userSpaceOnUse">
<stop stop-color="#243B3B" stop-opacity="0.6"/>
<stop offset="1" stop-color="#243B3B" stop-opacity="0"/>
</linearGradient>
<linearGradient id="paint33_linear" x1="1412" y1="-304.5" x2="298.5" y2="1027" gradientUnits="userSpaceOnUse">
<stop stop-color="#243B3B" stop-opacity="0.6"/>
<stop offset="1" stop-color="#243B3B" stop-opacity="0"/>
</linearGradient>
<linearGradient id="paint34_linear" x1="1412" y1="-304.5" x2="298.5" y2="1027" gradientUnits="userSpaceOnUse">
<stop stop-color="#243B3B" stop-opacity="0.6"/>
<stop offset="1" stop-color="#243B3B" stop-opacity="0"/>
</linearGradient>
<linearGradient id="paint35_linear" x1="1412" y1="-304.5" x2="298.5" y2="1027" gradientUnits="userSpaceOnUse">
<stop stop-color="#243B3B" stop-opacity="0.6"/>
<stop offset="1" stop-color="#243B3B" stop-opacity="0"/>
</linearGradient>
</defs>
</svg>
